<svg xmlns="http://www.w3.org/2000/svg" viewBox="0 0 900 560" role="img" aria-labelledby="title desc">
  <title id="title">Data visual</title>
  <desc id="desc">Minimal Earth observation data grid with satellite swaths, water masks, and time-series cells.</desc>
  <defs>
    <linearGradient id="bg" x1="0" x2="1" y1="0" y2="1">
      <stop offset="0" stop-color="#f8fbfa"/>
      <stop offset="1" stop-color="#eef6f3"/>
    </linearGradient>
    <linearGradient id="cell" x1="0" x2="1" y1="0" y2="1">
      <stop offset="0" stop-color="#d7eee9"/>
      <stop offset="1" stop-color="#ffffff"/>
    </linearGradient>
  </defs>
  <rect width="900" height="560" fill="url(#bg)"/>
  <g transform="translate(110 92)">
    <rect width="680" height="376" rx="8" fill="#ffffff" stroke="#dbe8e4" stroke-width="2"/>
    <g fill="url(#cell)" stroke="#dbe8e4">
      <rect x="42" y="54" width="96" height="62" rx="4"/>
      <rect x="154" y="54" width="96" height="62" rx="4"/>
      <rect x="266" y="54" width="96" height="62" rx="4"/>
      <rect x="378" y="54" width="96" height="62" rx="4"/>
      <rect x="490" y="54" width="96" height="62" rx="4"/>
      <rect x="42" y="134" width="96" height="62" rx="4"/>
      <rect x="154" y="134" width="96" height="62" rx="4"/>
      <rect x="266" y="134" width="96" height="62" rx="4"/>
      <rect x="378" y="134" width="96" height="62" rx="4"/>
      <rect x="490" y="134" width="96" height="62" rx="4"/>
      <rect x="42" y="214" width="96" height="62" rx="4"/>
      <rect x="154" y="214" width="96" height="62" rx="4"/>
      <rect x="266" y="214" width="96" height="62" rx="4"/>
      <rect x="378" y="214" width="96" height="62" rx="4"/>
      <rect x="490" y="214" width="96" height="62" rx="4"/>
    </g>
    <g fill="none" stroke-linecap="round">
      <path d="M55 238c62-32 98-18 141-56 42-37 77-33 121-11 48 24 97 16 158-27" stroke="#16786f" stroke-width="5"/>
      <path d="M80 93c86 66 171 95 254 89 92-7 178-54 252-110" stroke="#4b2572" stroke-opacity=".22" stroke-width="4"/>
      <path d="M72 282c91-44 172-42 247-5 83 41 171 29 280-34" stroke="#16786f" stroke-opacity=".28" stroke-width="4"/>
    </g>
    <g fill="#9a7a35">
      <circle cx="196" cy="182" r="8"/>
      <circle cx="317" cy="171" r="8"/>
      <circle cx="475" cy="144" r="8"/>
    </g>
    <g fill="#233532" opacity=".62">
      <rect x="42" y="318" width="176" height="10" rx="5"/>
      <rect x="238" y="318" width="96" height="10" rx="5" opacity=".42"/>
      <rect x="354" y="318" width="138" height="10" rx="5" opacity=".28"/>
    </g>
  </g>
</svg>
