<svg xmlns="http://www.w3.org/2000/svg" viewBox="0 0 900 450" role="img" aria-labelledby="title desc">
  <title id="title">Data visual</title>
  <desc id="desc">A minimal data platform visual with databases, tables, raster grids, and metadata records.</desc>
  <defs>
    <linearGradient id="bg" x1="0" x2="1" y1="0" y2="1">
      <stop offset="0" stop-color="#f8fbfa"/>
      <stop offset="1" stop-color="#edf6f3"/>
    </linearGradient>
    <linearGradient id="cell" x1="0" x2="1" y1="0" y2="1">
      <stop offset="0" stop-color="#d9f0ec"/>
      <stop offset="1" stop-color="#ffffff"/>
    </linearGradient>
    <filter id="soft" x="-20%" y="-20%" width="140%" height="140%">
      <feDropShadow dx="0" dy="14" stdDeviation="18" flood-color="#2e6f73" flood-opacity=".08"/>
    </filter>
  </defs>
  <rect width="900" height="450" fill="url(#bg)"/>
  <g fill="none" stroke="#dfeae7" stroke-width="1">
    <path d="M80 96h740M80 225h740M80 354h740"/>
    <path d="M180 58v334M350 58v334M520 58v334M690 58v334"/>
  </g>
  <g filter="url(#soft)">
    <rect x="126" y="78" width="648" height="294" rx="12" fill="#ffffff" stroke="#d9e7e3"/>
  </g>
  <g transform="translate(164 118)">
    <g fill="url(#cell)" stroke="#dbe8e4">
      <rect x="0" y="0" width="76" height="46" rx="5"/>
      <rect x="90" y="0" width="76" height="46" rx="5"/>
      <rect x="180" y="0" width="76" height="46" rx="5"/>
      <rect x="270" y="0" width="76" height="46" rx="5"/>
      <rect x="0" y="60" width="76" height="46" rx="5"/>
      <rect x="90" y="60" width="76" height="46" rx="5"/>
      <rect x="180" y="60" width="76" height="46" rx="5"/>
      <rect x="270" y="60" width="76" height="46" rx="5"/>
      <rect x="0" y="120" width="76" height="46" rx="5"/>
      <rect x="90" y="120" width="76" height="46" rx="5"/>
      <rect x="180" y="120" width="76" height="46" rx="5"/>
      <rect x="270" y="120" width="76" height="46" rx="5"/>
    </g>
    <g fill="#8aa19b">
      <rect x="0" y="196" width="150" height="9" rx="5"/>
      <rect x="172" y="196" width="94" height="9" rx="5" opacity=".62"/>
      <rect x="288" y="196" width="58" height="9" rx="5" opacity=".38"/>
    </g>
  </g>
  <g transform="translate(566 110)" fill="none" stroke="#8aa19b" stroke-width="2">
    <ellipse cx="76" cy="22" rx="76" ry="22" fill="#f7fbf8"/>
    <path d="M0 22v124c0 12 34 22 76 22s76-10 76-22V22"/>
    <path d="M0 64c0 12 34 22 76 22s76-10 76-22"/>
    <path d="M0 106c0 12 34 22 76 22s76-10 76-22"/>
    <path d="M0 146c0 12 34 22 76 22s76-10 76-22"/>
  </g>
  <g transform="translate(558 310)" fill="#ffffff" stroke="#d9e7e3" stroke-width="2">
    <rect width="180" height="44" rx="8"/>
    <rect x="22" y="16" width="56" height="8" rx="4" fill="#d7eee9" stroke="none"/>
    <rect x="92" y="16" width="62" height="8" rx="4" fill="#8aa19b" opacity=".48" stroke="none"/>
  </g>
  <g fill="#233532" font-family="-apple-system, BlinkMacSystemFont, 'Segoe UI', Arial, sans-serif" font-weight="760" opacity=".72">
    <text x="596" y="146" font-size="22">database</text>
    <text x="582" y="338" font-size="18">metadata</text>
  </g>
</svg>
